<svg xmlns="http://www.w3.org/2000/svg" width="25" height="25" viewBox="0 0 25 25" fill="none">
<path d="M17.9922 6.99027C17.8824 6.88055 17.7334 6.81891 17.5782 6.81891C17.4229 6.81891 17.274 6.88055 17.1641 6.99027L12.5 11.67L7.83793 6.98246C7.72786 6.87239 7.57856 6.81055 7.42289 6.81055C7.26722 6.81055 7.11793 6.87239 7.00785 6.98246C6.89778 7.09254 6.83594 7.24183 6.83594 7.3975C6.83594 7.55317 6.89778 7.70246 7.00785 7.81254L11.6719 12.5L7.00785 17.1875C6.89804 17.2976 6.83644 17.4468 6.83663 17.6023C6.83681 17.7578 6.89875 17.9068 7.00883 18.0166C7.1189 18.1265 7.2681 18.188 7.42358 18.1879C7.57907 18.1877 7.72811 18.1257 7.83793 18.0157L12.5 13.3301L17.1641 18.0176C17.2742 18.1277 17.4235 18.1895 17.5791 18.1895C17.7348 18.1895 17.8841 18.1277 17.9942 18.0176C18.1043 17.9075 18.1661 17.7582 18.1661 17.6026C18.1661 17.4469 18.1043 17.2976 17.9942 17.1875L13.3282 12.5L17.9942 7.81254C18.1019 7.70267 18.162 7.55485 18.1617 7.40101C18.1613 7.24716 18.1004 7.09963 17.9922 6.99027Z" fill="currentColor"/>
</svg>