<svg xmlns="http://www.w3.org/2000/svg" width="215" height="219" viewBox="0 0 215 219" fill="none">
  <g clip-path="url(#clip0_173_49)">
    <path opacity="0.3" d="M52.4699 18.25H123.055C126.232 18.25 129.307 19.3969 131.733 21.487L174.407 58.2535C177.425 60.8542 179.166 64.6769 179.166 68.704V183.26C179.166 199.599 178.983 200.75 162.529 200.75H52.4699C36.0162 200.75 35.833 199.599 35.833 183.26V35.7396C35.833 19.4009 36.0162 18.25 52.4699 18.25Z" fill="currentColor"/>
    <path d="M125.417 100.375H62.7083C57.7608 100.375 53.75 104.46 53.75 109.5C53.75 114.54 57.7608 118.625 62.7083 118.625H125.417C130.364 118.625 134.375 114.54 134.375 109.5C134.375 104.46 130.364 100.375 125.417 100.375Z" fill="currentColor"/>
    <path d="M89.5833 136.875H62.7083C57.7608 136.875 53.75 140.96 53.75 146C53.75 151.04 57.7608 155.125 62.7083 155.125H89.5833C94.5309 155.125 98.5417 151.04 98.5417 146C98.5417 140.96 94.5309 136.875 89.5833 136.875Z" fill="currentColor"/>
  </g>
  <defs>
    <clipPath id="clip0_173_49">
      <rect width="215" height="219" fill="white"/>
    </clipPath>
  </defs>
</svg>