<svg xmlns="http://www.w3.org/2000/svg" width="24" height="24" viewBox="0 0 24 24" fill="none">
  <path fill-rule="evenodd" clip-rule="evenodd" d="M5.38462 6H20.6154C21.3801 6 22 6.36377 22 6.8125V8.4375C22 8.88623 21.3801 9.25 20.6154 9.25H5.38462C4.61991 9.25 4 8.88623 4 8.4375V6.8125C4 6.36377 4.61991 6 5.38462 6ZM5.38462 10.875H20.6154C21.3801 10.875 22 11.2388 22 11.6875V13.3125C22 13.7612 21.3801 14.125 20.6154 14.125H5.38462C4.61991 14.125 4 13.7612 4 13.3125V11.6875C4 11.2388 4.61991 10.875 5.38462 10.875ZM5.38462 15.75H20.6154C21.3801 15.75 22 16.1138 22 16.5625V18.1875C22 18.6362 21.3801 19 20.6154 19H5.38462C4.61991 19 4 18.6362 4 18.1875V16.5625C4 16.1138 4.61991 15.75 5.38462 15.75Z" fill="#01497E"/>
</svg>