<svg width="229" height="229" viewBox="0 0 229 229" fill="none" xmlns="http://www.w3.org/2000/svg">
<g clip-path="url(#clip0_294_12)">
<path opacity="0.3" fill-rule="evenodd" clip-rule="evenodd" d="M76.3337 28.625V33.3958C76.3337 41.3004 82.7416 47.7083 90.6462 47.7083H138.354C146.259 47.7083 152.667 41.3004 152.667 33.3958V28.625H171.75C182.29 28.625 190.834 37.1689 190.834 47.7083V200.375C190.834 210.914 182.29 219.458 171.75 219.458H57.2503C46.7109 219.458 38.167 210.914 38.167 200.375V47.7083C38.167 37.1689 46.7109 28.625 57.2503 28.625H76.3337Z" fill="currentColor"/>
<path fill-rule="evenodd" clip-rule="evenodd" d="M104.958 19.0833C104.958 13.8136 109.23 9.54167 114.5 9.54167C119.77 9.54167 124.042 13.8136 124.042 19.0833H138.354C140.989 19.0833 143.125 21.2193 143.125 23.8542V33.3958C143.125 36.0307 140.989 38.1667 138.354 38.1667H90.6458C88.011 38.1667 85.875 36.0307 85.875 33.3958V23.8542C85.875 21.2193 88.011 19.0833 90.6458 19.0833H104.958Z" fill="currentColor"/>
<path opacity="0.3" d="M152.667 85.875H104.959C99.6889 85.875 95.417 90.1469 95.417 95.4167C95.417 100.686 99.6889 104.958 104.959 104.958H152.667C157.937 104.958 162.209 100.686 162.209 95.4167C162.209 90.1469 157.937 85.875 152.667 85.875Z" fill="currentColor"/>
<path opacity="0.3" d="M85.8753 95.4167C85.8753 90.1469 81.6034 85.875 76.3337 85.875C71.0639 85.875 66.792 90.1469 66.792 95.4167C66.792 100.686 71.0639 104.958 76.3337 104.958C81.6034 104.958 85.8753 100.686 85.8753 95.4167Z" fill="currentColor"/>
<path opacity="0.3" d="M85.8753 133.583C85.8753 128.314 81.6034 124.042 76.3337 124.042C71.0639 124.042 66.792 128.314 66.792 133.583C66.792 138.853 71.0639 143.125 76.3337 143.125C81.6034 143.125 85.8753 138.853 85.8753 133.583Z" fill="currentColor"/>
<path opacity="0.3" d="M152.667 124.042H104.959C99.6889 124.042 95.417 128.314 95.417 133.583C95.417 138.853 99.6889 143.125 104.959 143.125H152.667C157.937 143.125 162.209 138.853 162.209 133.583C162.209 128.314 157.937 124.042 152.667 124.042Z" fill="currentColor"/>
<path opacity="0.3" d="M85.8753 171.75C85.8753 166.48 81.6034 162.208 76.3337 162.208C71.0639 162.208 66.792 166.48 66.792 171.75C66.792 177.02 71.0639 181.292 76.3337 181.292C81.6034 181.292 85.8753 177.02 85.8753 171.75Z" fill="currentColor"/>
<path opacity="0.3" d="M152.667 162.208H104.959C99.6889 162.208 95.417 166.48 95.417 171.75C95.417 177.02 99.6889 181.292 104.959 181.292H152.667C157.937 181.292 162.209 177.02 162.209 171.75C162.209 166.48 157.937 162.208 152.667 162.208Z" fill="currentColor"/>
</g>
<defs>
<clipPath id="clip0_294_12">
<rect width="229" height="229" fill="white"/>
</clipPath>
</defs>
</svg>
