<svg xmlns="http://www.w3.org/2000/svg" width="97" height="97" viewBox="0 0 97 97" fill="none">
  <g clip-path="url(#clip0_172_22)">
    <path opacity="0.3" d="M23.6729 8.08334H55.5183C56.9518 8.08334 58.339 8.59132 59.4335 9.51708L78.6863 25.8018C80.0482 26.9537 80.8337 28.6469 80.8337 30.4305V81.1702C80.8337 88.4069 80.751 88.9167 73.3277 88.9167H23.6729C16.2496 88.9167 16.167 88.4069 16.167 81.1702V15.8299C16.167 8.5931 16.2496 8.08334 23.6729 8.08334Z" fill="currentColor"/>
    <path fill-rule="evenodd" clip-rule="evenodd" d="M36.1781 55.837H44.0855V63.9513C44.0855 65.0674 44.9903 65.9722 46.1064 65.9722H50.2422C51.3583 65.9722 52.263 65.0674 52.263 63.9513V55.837H60.1704C61.2865 55.837 62.1913 54.9323 62.1913 53.8162C62.1913 53.338 62.0217 52.8753 61.7127 52.5104L49.7166 38.3417C48.9954 37.4899 47.7202 37.384 46.8685 38.1052C46.7832 38.1773 46.7041 38.2564 46.632 38.3417L34.6358 52.5104C33.9146 53.3622 34.0205 54.6373 34.8723 55.3585C35.2372 55.6674 35.6999 55.837 36.1781 55.837Z" fill="currentColor"/>
  </g>
  <defs>
    <clipPath id="clip0_172_22">
      <rect width="97" height="97" fill="white"/>
    </clipPath>
  </defs>
</svg>