<svg xmlns="http://www.w3.org/2000/svg" width="86" height="86" viewBox="0 0 86 86" fill="none">
  <g clip-path="url(#clip0_296_28)">
    <path d="M77.9308 25.4366L46.2207 58.4592C45.2343 59.4864 43.8804 60.0802 42.4565 60.1101L29.1148 60.39L29.3959 46.9937C29.4251 45.6022 29.9929 44.2762 30.9799 43.2949L63.411 11.0491C65.5118 8.96026 68.9067 8.96513 71.0015 11.0599L77.8546 17.913C79.9236 19.982 79.9575 23.326 77.9308 25.4366Z" fill="currentColor"/>
    <path opacity="0.3" d="M46.2253 7.16666C48.2043 7.16666 49.8087 8.77097 49.8087 10.75C49.8087 12.729 48.2043 14.3333 46.2253 14.3333H21.5003C17.5423 14.3333 14.3337 17.5419 14.3337 21.5V64.5C14.3337 68.458 17.5423 71.6667 21.5003 71.6667H64.5003C68.4584 71.6667 71.667 68.458 71.667 64.5V46.5833C71.667 44.6043 73.2713 43 75.2503 43C77.2293 43 78.8337 44.6043 78.8337 46.5833V64.5C78.8337 72.4161 72.4164 78.8333 64.5003 78.8333H21.5003C13.5842 78.8333 7.16699 72.4161 7.16699 64.5V21.5C7.16699 13.5839 13.5842 7.16666 21.5003 7.16666H46.2253Z" fill="currentColor"/>
  </g>
  <defs>
    <clipPath id="clip0_296_28">
      <rect width="86" height="86" fill="white"/>
    </clipPath>
  </defs>
</svg>